<svg width="817" height="629" viewBox="0 0 817 629" fill="none" xmlns="http://www.w3.org/2000/svg">
<path opacity="0.5" d="M621 32L635.797 17.3975C641.639 11.633 651.028 11.633 656.869 17.3975L661.131 21.6025C666.972 27.367 676.361 27.367 682.203 21.6025L697 7" stroke="#4E887A" stroke-width="13" stroke-linecap="round"/>
<path opacity="0.5" d="M702 44L716.797 29.3975C722.639 23.633 732.028 23.633 737.869 29.3975L742.131 33.6025C747.972 39.367 757.361 39.367 763.203 33.6025L778 19" stroke="#4E887A" stroke-width="13" stroke-linecap="round"/>
<path opacity="0.5" d="M7 610L21.7972 595.398C27.6386 589.633 37.0281 589.633 42.8695 595.397L47.1305 599.602C52.9719 605.367 62.3614 605.367 68.2028 599.603L83 585" stroke="#4E887A" stroke-width="13" stroke-linecap="round"/>
<path opacity="0.5" d="M88 622L102.797 607.398C108.639 601.633 118.028 601.633 123.869 607.397L128.131 611.602C133.972 617.367 143.361 617.367 149.203 611.603L164 597" stroke="#4E887A" stroke-width="13" stroke-linecap="round"/>
<circle opacity="0.5" cx="774.5" cy="554.5" r="20.5" fill="#4E887A"/>
<circle opacity="0.5" cx="767.5" cy="603.5" r="13.5" fill="#4E887A"/>
<circle opacity="0.5" cx="806" cy="582" r="11" fill="#4E887A"/>
<circle opacity="0.5" cx="77.5" cy="22.5" r="15.5" fill="#4E887A"/>
<circle opacity="0.5" cx="72.5" cy="59.5" r="10.5" fill="#4E887A"/>
<circle opacity="0.5" cx="101.5" cy="43.5" r="8.5" fill="#4E887A"/>
</svg>
